Coordinates
version=1
nRows=17
nColumns=40
inDegrees=yes

Units are S.I. units (second, meters, Newtons, ...)
Angles are in degrees.

endheader
time	pelvis_tilt	pelvis_list	pelvis_rotation	pelvis_tx	pelvis_ty	pelvis_tz	hip_flexion_r	hip_adduction_r	hip_rotation_r	knee_angle_r	knee_angle_r_beta	ankle_angle_r	subtalar_angle_r	mtp_angle_r	hip_flexion_l	hip_adduction_l	hip_rotation_l	knee_angle_l	knee_angle_l_beta	ankle_angle_l	subtalar_angle_l	mtp_angle_l	lumbar_extension	lumbar_bending	lumbar_rotation	arm_flex_r	arm_add_r	arm_rot_r	elbow_flex_r	pro_sup_r	wrist_flex_r	wrist_dev_r	arm_flex_l	arm_add_l	arm_rot_l	elbow_flex_l	pro_sup_l	wrist_flex_l	wrist_dev_l
     54.15000000	     -3.85776034	     -4.86403834	     -9.12917544	      0.88226660	      0.93002925	      0.41237722	     26.03423550	     -1.86569795	     -7.31381663	     24.99444003	     24.99444003	      2.49601337	     -4.75275042	     -0.64618550	      7.41717836	     -3.44500018	    -11.72474299	     19.84685382	     19.84685382	     17.82972266	    -14.17507990	      1.18129858	    -11.91412349	      7.47649292	      1.23559844	    -15.66084232	    -14.19333974	    -13.36475552	     25.98993243	     47.01765462	      0.00000000	      0.00000000	     29.35600676	    -19.02990042	     -5.60750456	     65.72037780	     47.63662059	      0.00000000	      0.00000000
     54.16957143	     -4.13681926	     -4.72298908	     -9.62726625	      0.88241080	      0.92918735	      0.41540025	     25.50877757	     -1.59759483	     -8.03944375	     21.43822539	     21.43822539	      2.08860277	     -1.18194428	     -0.22943700	      6.88290929	     -3.44251746	    -12.30507716	     19.20493526	     19.20493526	     17.67012340	    -14.02434763	      0.07536397	    -11.85087773	      7.41368895	      1.15102518	    -16.59256397	    -13.89144727	    -14.20988089	     27.22332827	     46.99349536	      0.00000000	      0.00000000	     29.72001967	    -19.26722720	     -7.16703515	     67.83152627	     47.78397959	      0.00000000	      0.00000000
     54.18914286	     -4.37333445	     -4.60285197	    -10.06488289	      0.88294317	      0.92820093	      0.41877714	     24.94775595	     -1.20931277	     -8.52886076	     18.37541315	     18.37541315	      1.73771526	      1.67128320	      0.45806960	      6.33125717	     -3.46825599	    -12.78894610	     18.68814542	     18.68814542	     17.83532290	    -13.81538516	     -0.29453112	    -11.72974403	      7.32654957	      1.33718132	    -17.10875573	    -13.59212556	    -14.38316227	     27.32448235	     46.98811481	      0.00000000	      0.00000000	     30.50873856	    -19.48814003	     -7.71218980	     68.89744688	     47.84538978	      0.00000000	      0.00000000
     54.20871429	     -4.59794596	     -4.41212949	    -10.47062806	      0.88385003	      0.92700019	      0.42228248	     24.51384637	     -0.95011691	     -9.21928025	     16.03956459	     16.03956459	      1.51194875	      4.59764929	      1.07177775	      5.75484811	     -3.41907378	    -13.32784587	     18.17480666	     18.17480666	     18.03003695	    -13.50003809	     -0.77596965	    -11.59893803	      7.18180885	      1.54273694	    -17.45708815	    -13.23266456	    -14.58195776	     27.55501530	     46.97981123	      0.00000000	      0.00000000	     31.12158506	    -19.60068526	     -8.41680043	     70.12019180	     47.91874252	      0.00000000	      0.00000000
     54.22828571	     -4.80035567	     -4.19457277	    -10.80897316	      0.88516579	      0.92574013	      0.42601375	     24.20369710	     -0.75077117	     -9.85035126	     14.47374352	     14.47374352	      1.41609743	      7.04269763	      1.53625612	      5.16128294	     -3.35431548	    -13.81311074	     17.70355881	     17.70355881	     18.18578360	    -13.16313099	     -1.31489354	    -11.42778221	      7.02946116	      1.66185221	    -17.56278909	    -12.85818755	    -14.81379461	     27.88870420	     46.96943581	      0.00000000	      0.00000000	     31.50155038	    -19.62993506	     -9.31051578	     71.41685628	     48.00359681	      0.00000000	      0.00000000
     54.24785714	     -5.04952325	     -4.02023217	    -11.07444936	      0.88680581	      0.92446364	      0.42997211	     23.96491923	     -0.47161720	    -10.12489859	     13.41116678	     13.41116678	      1.32128847	      8.50532231	      1.69079027	      4.62233476	     -3.34324797	    -14.14772602	     17.27854221	     17.27854221	     18.40554980	    -12.90119280	     -1.62417609	    -11.13994283	      6.90128222	      1.79565605	    -17.47593220	    -12.51035025	    -14.91852237	     28.07633359	     46.96138139	      0.00000000	      0.00000000	     31.81200108	    -19.61809838	     -9.96025079	     72.35625364	     48.06501896	      0.00000000	      0.00000000
     54.26742857	     -5.17247700	     -3.94722313	    -11.29318468	      0.88892318	      0.92348887	      0.43411773	     23.65814134	     -0.18010243	    -10.44311989	     12.94558500	     12.94558500	      1.24195518	      9.68931501	      1.30826577	      3.87437949	     -3.42973636	    -14.54273698	     16.80866136	     16.80866136	     18.60783507	    -12.50554766	     -1.92553802	    -11.04309143	      6.94745756	      1.90708453	    -17.20887641	    -12.23762474	    -15.07542684	     28.27172181	     46.95462793	      0.00000000	      0.00000000	     31.85360158	    -19.48662702	    -11.00763192	     73.60046561	     48.15507501	      0.00000000	      0.00000000
     54.28700000	     -5.32876016	     -3.86853407	    -11.42690018	      0.89128206	      0.92250645	      0.43845424	     23.53365713	      0.09779272	    -10.30256507	     13.07401872	     13.07401872	      1.17664668	      9.79200875	      0.20907629	      3.22524906	     -3.54518974	    -14.83314481	     16.47235944	     16.47235944	     18.83831645	    -12.11212721	     -2.03447254	    -10.86795899	      6.95347816	      1.84207932	    -16.68331116	    -12.01492947	    -15.20277248	     28.35801498	     46.94958145	      0.00000000	      0.00000000	     31.71074843	    -19.38282482	    -12.21687609	     74.78607139	     48.25150321	      0.00000000	      0.00000000
     54.30657143	     -5.56572490	     -3.95049143	    -11.44567131	      0.89383692	      0.92172918	      0.44294235	     23.40054887	      0.50409462	    -10.24666112	     13.37185965	     13.37185965	      1.34465676	      9.65086825	     -0.16137622	      2.76788827	     -3.87012897	    -14.83208200	     16.38274114	     16.38274114	     19.00048759	    -12.10923257	     -1.99702360	    -10.57015346	      7.17189241	      1.95298035	    -16.20221871	    -11.84247873	    -15.17582369	     28.47511629	     46.94362630	      0.00000000	      0.00000000	     31.77405591	    -19.33700166	    -12.38243453	     74.99052007	     48.26557121	      0.00000000	      0.00000000
     54.32614286	     -5.65279741	     -4.06435970	    -11.39680706	      0.89671458	      0.92131759	      0.44753037	     23.20652529	      0.86109912	    -10.04981603	     14.07060452	     14.07060452	      1.65757216	      9.12541607	     -0.79739873	      2.12390562	     -4.21882419	    -14.83312924	     16.28344289	     16.28344289	     19.13319322	    -11.95802546	     -1.87996332	    -10.44765616	      7.41145381	      2.05835723	    -15.65886210	    -11.74942781	    -15.15769907	     28.56869967	     46.93957833	      0.00000000	      0.00000000	     31.71511273	    -19.15204067	    -12.64848412	     75.27213037	     48.28650005	      0.00000000	      0.00000000
     54.34571429	     -5.75132766	     -4.05981487	    -11.29864873	      0.89978801	      0.92097069	      0.45235148	     22.96576688	      1.24407294	     -8.98336843	     14.60145030	     14.60145030	      0.96197538	      6.93527669	     -4.50387894	      1.65539755	     -4.56928806	    -15.14232777	     16.54420078	     16.54420078	     19.90104101	    -11.00733845	     -0.69995228	    -10.28508151	      7.44643039	      1.33554905	    -14.37641970	    -11.84365296	    -15.14555602	     27.78133687	     46.94356386	      0.00000000	      0.00000000	     30.60566970	    -19.03651961	    -15.16554088	     77.10373101	     48.45803525	      0.00000000	      0.00000000
     54.36528571	     -5.77847653	     -4.22673610	    -11.10171432	      0.90300356	      0.92114375	      0.45713329	     22.60779672	      1.57329725	     -8.96833651	     15.32598244	     15.32598244	      1.45959424	      6.49437451	     -4.83471897	      1.07747516	     -5.03054049	    -15.01433111	     16.68068841	     16.68068841	     19.82168715	    -10.99509905	     -0.58188389	    -10.18717424	      7.68406636	      1.41833908	    -13.77033648	    -11.80377007	    -15.10586153	     27.95004112	     46.93648408	      0.00000000	      0.00000000	     30.43645442	    -18.70982646	    -15.07719065	     77.07308831	     48.44882325	      0.00000000	      0.00000000
     54.38485714	     -5.74696854	     -4.30544200	    -10.84804967	      0.90620738	      0.92142316	      0.46200341	     22.38091811	      1.81263791	     -8.67883098	     16.38972203	     16.38972203	      2.12787759	      5.39455585	     -5.19858201	      0.58339997	     -5.44724965	    -14.90710372	     17.04958074	     17.04958074	     19.76618427	    -10.91669225	     -0.42337766	    -10.18324555	      7.78743712	      1.49449266	    -13.27032200	    -11.93045007	    -15.08810637	     28.05262822	     46.93175248	      0.00000000	      0.00000000	     30.22245773	    -18.51480874	    -15.18386271	     77.03354718	     48.45127045	      0.00000000	      0.00000000
     54.40442857	     -5.89143324	     -4.35477554	    -10.56937129	      0.90923555	      0.92166855	      0.46706312	     22.27431831	      2.18142705	     -7.89042069	     17.24832398	     17.24832398	      2.73676182	      3.47131046	     -5.15365831	      0.49950018	     -5.98248604	    -14.89182127	     17.81149368	     17.81149368	     19.83640171	    -10.61130205	     -0.08287160	     -9.89199059	      7.82119934	      1.34743972	    -12.62358699	    -12.01740010	    -15.02316807	     28.13318945	     46.91768731	      0.00000000	      0.00000000	     29.76274207	    -18.20937689	    -15.63484471	     76.99195120	     48.47021484	      0.00000000	      0.00000000
     54.42400000	     -5.90506482	     -4.50528558	    -10.22334677	      0.91238860	      0.92234648	      0.47209595	     21.81046327	      2.54376368	     -7.73009812	     17.75748669	     17.75748669	      3.38857833	      2.55075928	     -4.88753591	      0.33212141	     -6.62687212	    -14.80011038	     18.69141951	     18.69141951	     19.81697617	    -10.37178424	      0.22225305	     -9.79323427	      7.94768775	      1.23157027	    -11.98854446	    -12.21287004	    -14.92281061	     28.22999322	     46.89753689	      0.00000000	      0.00000000	     29.19215811	    -17.87088338	    -16.00876328	     76.84955316	     48.47929795	      0.00000000	      0.00000000
     54.44357143	     -5.90230268	     -4.60625030	     -9.83636451	      0.91541451	      0.92314727	      0.47702466	     21.26838812	      2.81131734	     -7.81432955	     18.08695467	     18.08695467	      4.01960384	      2.11443640	     -4.76683948	      0.29590454	     -7.22714835	    -14.55195586	     19.74694767	     19.74694767	     19.51835311	    -10.44369285	      0.24948524	     -9.71861553	      7.99836745	      1.16463624	    -11.45987744	    -12.40165195	    -14.86039986	     28.39524196	     46.88319551	      0.00000000	      0.00000000	     28.68133064	    -17.52374669	    -16.07252430	     76.56611530	     48.46957486	      0.00000000	      0.00000000
     54.46314286	     -5.83884179	     -4.70120209	     -9.46449872	      0.91845496	      0.92408451	      0.48201491	     20.59491219	      3.07218634	     -8.00320703	     18.27442144	     18.27442144	      4.61211294	      1.82770931	     -4.69406346	      0.29106706	     -7.83705867	    -14.27290702	     20.96125430	     20.96125430	     19.10743221	    -10.64939165	      0.14894566	     -9.68971463	      7.99774483	      1.17214908	    -10.92501629	    -12.62307871	    -14.81967013	     28.58546935	     46.87274456	      0.00000000	      0.00000000	     28.03571009	    -17.10146464	    -16.03284547	     76.17522389	     48.45195361	      0.00000000	      0.00000000
